<svg width="223" height="161" viewBox="0 0 223 161" fill="none" xmlns="http://www.w3.org/2000/svg">
<g opacity="0.05">
<path fill-rule="evenodd" clip-rule="evenodd" d="M49.5963 24.9529C49.5963 38.6139 38.5102 49.6883 24.8348 49.6883C11.1595 49.6883 0.0733643 38.6139 0.0733643 24.9529C0.0733643 11.2919 11.1595 0.217529 24.8348 0.217529C38.5102 0.217529 49.5963 11.2919 49.5963 24.9529ZM49.5963 80.6075C49.5963 94.2685 38.5102 105.343 24.8348 105.343C11.1595 105.343 0.0733643 94.2685 0.0733643 80.6075C0.0733643 66.9466 11.1595 55.8721 24.8348 55.8721C38.5102 55.8721 49.5963 66.9466 49.5963 80.6075ZM24.8348 160.998C38.5102 160.998 49.5963 149.923 49.5963 136.262C49.5963 122.601 38.5102 111.527 24.8348 111.527C11.1595 111.527 0.0733643 122.601 0.0733643 136.262C0.0733643 149.923 11.1595 160.998 24.8348 160.998ZM80.5482 48.6883C93.6723 48.6883 104.31 38.0606 104.31 24.9529C104.31 11.8452 93.6723 1.21753 80.5482 1.21753C67.4241 1.21753 56.7867 11.8452 56.7867 24.9529C56.7867 38.0606 67.4241 48.6883 80.5482 48.6883ZM80.5482 49.6883C94.2235 49.6883 105.31 38.6139 105.31 24.9529C105.31 11.2919 94.2235 0.217529 80.5482 0.217529C66.8728 0.217529 55.7867 11.2919 55.7867 24.9529C55.7867 38.6139 66.8728 49.6883 80.5482 49.6883ZM80.5482 104.343C93.6723 104.343 104.31 93.7152 104.31 80.6075C104.31 67.4998 93.6723 56.8721 80.5482 56.8721C67.4241 56.8721 56.7867 67.4998 56.7867 80.6075C56.7867 93.7152 67.4241 104.343 80.5482 104.343ZM80.5482 105.343C94.2235 105.343 105.31 94.2685 105.31 80.6075C105.31 66.9466 94.2235 55.8721 80.5482 55.8721C66.8728 55.8721 55.7867 66.9466 55.7867 80.6075C55.7867 94.2685 66.8728 105.343 80.5482 105.343ZM104.31 136.262C104.31 149.37 93.6723 159.998 80.5482 159.998C67.4241 159.998 56.7867 149.37 56.7867 136.262C56.7867 123.154 67.4241 112.527 80.5482 112.527C93.6723 112.527 104.31 123.154 104.31 136.262ZM105.31 136.262C105.31 149.923 94.2235 160.998 80.5482 160.998C66.8728 160.998 55.7867 149.923 55.7867 136.262C55.7867 122.601 66.8728 111.527 80.5482 111.527C94.2235 111.527 105.31 122.601 105.31 136.262ZM142.452 48.6883C155.576 48.6883 166.213 38.0606 166.213 24.9529C166.213 11.8452 155.576 1.21753 142.452 1.21753C129.328 1.21753 118.69 11.8452 118.69 24.9529C118.69 38.0606 129.328 48.6883 142.452 48.6883ZM142.452 49.6883C156.127 49.6883 167.213 38.6139 167.213 24.9529C167.213 11.2919 156.127 0.217529 142.452 0.217529C128.776 0.217529 117.69 11.2919 117.69 24.9529C117.69 38.6139 128.776 49.6883 142.452 49.6883ZM167.213 80.6075C167.213 94.2685 156.127 105.343 142.452 105.343C128.776 105.343 117.69 94.2685 117.69 80.6075C117.69 66.9466 128.776 55.8721 142.452 55.8721C156.127 55.8721 167.213 66.9466 167.213 80.6075ZM142.452 160.998C156.127 160.998 167.213 149.923 167.213 136.262C167.213 122.601 156.127 111.527 142.452 111.527C128.776 111.527 117.69 122.601 117.69 136.262C117.69 149.923 128.776 160.998 142.452 160.998ZM222.927 24.9529C222.927 38.6139 211.841 49.6883 198.165 49.6883C184.49 49.6883 173.404 38.6139 173.404 24.9529C173.404 11.2919 184.49 0.217529 198.165 0.217529C211.841 0.217529 222.927 11.2919 222.927 24.9529ZM198.165 104.343C211.289 104.343 221.927 93.7152 221.927 80.6075C221.927 67.4998 211.289 56.8721 198.165 56.8721C185.041 56.8721 174.404 67.4998 174.404 80.6075C174.404 93.7152 185.041 104.343 198.165 104.343ZM198.165 105.343C211.841 105.343 222.927 94.2685 222.927 80.6075C222.927 66.9466 211.841 55.8721 198.165 55.8721C184.49 55.8721 173.404 66.9466 173.404 80.6075C173.404 94.2685 184.49 105.343 198.165 105.343ZM221.927 136.262C221.927 149.37 211.289 159.998 198.165 159.998C185.041 159.998 174.404 149.37 174.404 136.262C174.404 123.154 185.041 112.527 198.165 112.527C211.289 112.527 221.927 123.154 221.927 136.262ZM222.927 136.262C222.927 149.923 211.841 160.998 198.165 160.998C184.49 160.998 173.404 149.923 173.404 136.262C173.404 122.601 184.49 111.527 198.165 111.527C211.841 111.527 222.927 122.601 222.927 136.262Z" fill="white"/>
</g>
</svg>
