<svg xmlns="http://www.w3.org/2000/svg" viewBox="-0.5 -0.5 16 16" id="React--Streamline-Font-Awesome.svg" height="16" width="16"><desc>React Streamline Icon: https://streamlinehq.com</desc><!--! Font Awesome Free 6.5.2 by @fontawesome - https://fontawesome.com License - https://fontawesome.com/license/free (Icons: CC BY 4.0, Fonts: SIL OFL 1.1, Code: MIT License) Copyright 2024 Fonticons, Inc.--><path d="M12.251953125 5.19140625c-0.158203125 -0.052734375 -0.31640625 -0.1025390625 -0.474609375 -0.1494140625 0.0263671875 -0.1083984375 0.0498046875 -0.216796875 0.0732421875 -0.3251953125 0.3603515625 -1.74609375 0.123046875 -3.1494140625 -0.6767578125 -3.6123046875 -0.7705078125 -0.4423828125 -2.02734375 0.017578125 -3.298828125 1.125 -0.1259765625 0.1083984375 -0.2490234375 0.22265625 -0.3662109375 0.3369140625 -0.0791015625 -0.076171875 -0.1611328125 -0.15234375 -0.24316406250000003 -0.2255859375 -1.3330078125 -1.18359375 -2.6689453125 -1.681640625 -3.46875 -1.2158203125 -0.767578125 0.4453125 -0.99609375 1.7666015625 -0.673828125 3.4189453125 0.0322265625 0.1640625 0.0673828125 0.3251953125 0.1083984375 0.4892578125 -0.1875 0.052734375 -0.3720703125 0.111328125 -0.544921875 0.1728515625C1.1220703125 5.748046875 0 6.603515625 0 7.48828125c0 0.9140625 1.1953125 1.8310546875 2.8212890625 2.3876953125 0.1318359375 0.0439453125 0.263671875 0.087890625 0.3984375 0.1259765625 -0.0439453125 0.17578125 -0.08203125 0.3486328125 -0.1171875 0.52734375 -0.3076171875 1.6259765625 -0.0673828125 2.9150390625 0.7001953125 3.357421875 0.791015625 0.45703125 2.12109375 -0.01171875 3.416015625 -1.1455078125 0.1025390625 -0.0908203125 0.205078125 -0.1845703125 0.3076171875 -0.2841796875 0.12890625 0.1259765625 0.263671875 0.24609375 0.3984375 0.36328125 1.25390625 1.078125 2.4931640625 1.5146484375 3.2578125 1.072265625 0.791015625 -0.45703125 1.048828125 -1.8427734375 0.71484375 -3.5302734375 -0.0263671875 -0.12890625 -0.0556640625 -0.2607421875 -0.087890625 -0.3955078125 0.09375 -0.0263671875 0.1845703125 -0.0556640625 0.275390625 -0.0849609375 1.6904296875 -0.5595703125 2.9150390625 -1.46484375 2.9150390625 -2.3935546875 0 -0.8876953125 -1.154296875 -1.7490234375 -2.748046875 -2.296875zM8.2880859375 2.7041015625c1.08984375 -0.94921875 2.1064453125 -1.3212890625 2.5693359375 -1.0546875 0.49511718749999994 0.2841796875 0.685546875 1.4326171875 0.375 2.94140625 -0.0205078125 0.099609375 -0.041015625 0.1962890625 -0.0673828125 0.29296875 -0.650390625 -0.146484375 -1.3095703125 -0.251953125 -1.9716796875 -0.310546875 -0.380859375 -0.544921875 -0.796875 -1.06640625 -1.248046875 -1.5556640625 0.1142578125 -0.1083984375 0.2255859375 -0.2109375 0.3427734375 -0.3134765625zM4.8984375 9.0087890625c0.1494140625 0.2548828125 0.3017578125 0.509765625 0.462890625 0.7587890625 -0.45703125 -0.0498046875 -0.9111328125 -0.123046875 -1.359375 -0.2197265625 0.12890625 -0.421875 0.2900390625 -0.8583984375 0.4775390625 -1.3037109375 0.134765625 0.2578125 0.2724609375 0.5126953125 0.4189453125 0.7646484375zm-0.8876953125 -3.5244140625c0.421875 -0.09375 0.8701171875 -0.169921875 1.3359375 -0.228515625 -0.1552734375 0.24316406250000003 -0.3076171875 0.4921875 -0.451171875 0.744140625 -0.1435546875 0.2490234375 -0.2841796875 0.50390625 -0.416015625 0.76171875 -0.1845703125 -0.4365234375 -0.33984375 -0.8642578125 -0.46875 -1.27734375zm0.802734375 2.0185546875c0.193359375 -0.404296875 0.404296875 -0.7998046875 0.626953125 -1.189453125s0.462890625 -0.767578125 0.71484375 -1.1396484375c0.439453125 -0.0322265625 0.8876953125 -0.0498046875 1.3447265625 -0.0498046875s0.908203125 0.017578125 1.3447265625 0.0498046875c0.2490234375 0.369140625 0.48632812500000006 0.7470703125 0.7119140625 1.1337890625s0.4365234375 0.7822265625 0.6357421875 1.18359375c-0.1962890625 0.404296875 -0.4072265625 0.802734375 -0.6328125 1.1953125 -0.22265625 0.3896484375 -0.4599609375 0.767578125 -0.708984375 1.142578125 -0.4365234375 0.0322265625 -0.890625 0.046875 -1.3505859375 0.046875s-0.9052734375 -0.0146484375 -1.3359375 -0.041015625c-0.2548828125 -0.3720703125 -0.49511718749999994 -0.7529296875 -0.720703125 -1.142578125s-0.43359375 -0.78515625 -0.6298828125 -1.189453125zm5.291015625 1.5c0.1494140625 -0.2578125 0.2900390625 -0.5185546875 0.427734375 -0.7822265625 0.1875 0.4248046875 0.3515625 0.85546875 0.49511718749999994 1.2978515625 -0.4541015625 0.1025390625 -0.9140625 0.181640625 -1.376953125 0.234375 0.158203125 -0.24609375 0.3076171875 -0.498046875 0.4541015625 -0.75zm0.421875 -2.2412109375c-0.1376953125 -0.2578125 -0.2783203125 -0.515625 -0.4248046875 -0.767578125 -0.1435546875 -0.2490234375 -0.29296875 -0.49511718749999994 -0.4482421875 -0.73828125 0.47167968750000006 0.05859375 0.9228515625 0.1376953125 1.3447265625 0.234375 -0.134765625 0.43359375 -0.29296875 0.85546875 -0.47167968750000006 1.271484375zM7.505859375 3.4658203125c0.3076171875 0.333984375 0.59765625 0.685546875 0.8671875 1.048828125 -0.580078125 -0.0263671875 -1.1630859375 -0.0263671875 -1.7431640625 0 0.287109375 -0.3779296875 0.5830078125 -0.7294921875 0.8759765625 -1.048828125zM4.107421875 1.669921875c0.4921875 -0.287109375 1.5849609375 0.123046875 2.736328125 1.142578125 0.0732421875 0.064453125 0.146484375 0.134765625 0.22265625 0.205078125 -0.4541015625 0.4892578125 -0.873046875 1.0107421875 -1.2568359375 1.5556640625 -0.662109375 0.05859375 -1.318359375 0.1611328125 -1.96875 0.3046875 -0.0380859375 -0.1494140625 -0.0703125 -0.3017578125 -0.1025390625 -0.4541015625 -0.275390625 -1.41796875 -0.09375 -2.4873046875 0.369140625 -2.75390625zm-0.7177734375 7.722656250000001c-0.123046875 -0.03515625 -0.24316406250000003 -0.0732421875 -0.36328125 -0.1142578125 -0.6240234375 -0.1962890625 -1.3330078125 -0.5068359375 -1.845703125 -0.9140625 -0.2958984375 -0.205078125 -0.49511718749999994 -0.521484375 -0.55078125 -0.8759765625 0 -0.5361328125 0.92578125 -1.2216796875 2.26171875 -1.6875 0.1669921875 -0.05859375 0.3369140625 -0.111328125 0.5068359375 -0.1611328125 0.19921875 0.6357421875 0.439453125 1.259765625 0.7177734375 1.86328125 -0.28125 0.6123046875 -0.5244140625 1.2451171875 -0.7265625 1.8896484375zm3.416015625 2.87109375c-0.4833984375 0.4423828125 -1.04296875 0.7939453125 -1.65234375 1.0341796875 -0.3251953125 0.1552734375 -0.7001953125 0.169921875 -1.0341796875 0.0380859375 -0.4658203125 -0.26953125 -0.6591796875 -1.3037109375 -0.3955078125 -2.6953125 0.0322265625 -0.1640625 0.0673828125 -0.328125 0.1083984375 -0.4892578125 0.65625 0.140625 1.318359375 0.2373046875 1.9892578125000002 0.287109375 0.38671875 0.5478515625 0.8115234375 1.072265625 1.265625 1.564453125 -0.09375 0.0908203125 -0.1875 0.1787109375 -0.28125 0.2607421875zm0.7177734375 -0.7119140625c-0.298828125 -0.322265625 -0.59765625 -0.6796875 -0.8876953125 -1.0634765625 0.28125 0.01171875 0.5712890625 0.017578125 0.8642578125 0.017578125 0.3017578125 0 0.59765625 -0.005859375 0.890625 -0.0205078125 -0.26953125 0.3720703125 -0.5595703125 0.7265625 -0.8671875 1.06640625zm3.8291015624999996 0.87890625c-0.0263671875 0.357421875 -0.2021484375 0.69140625 -0.4833984375 0.9169921875 -0.4658203125 0.26953125 -1.458984375 -0.08203125 -2.53125 -1.001953125 -0.123046875 -0.10546875 -0.24609375 -0.2197265625 -0.3720703125 -0.3369140625 0.4482421875 -0.49511718749999994 0.861328125 -1.01953125 1.236328125 -1.5703125 0.6708984375 -0.0556640625 1.3388671875 -0.158203125 1.998046875 -0.3076171875 0.029296875 0.12011718749999999 0.0556640625 0.24023437499999997 0.0791015625 0.357421875 0.1435546875 0.6328125 0.1669921875 1.2919921875 0.0732421875 1.9423828125zm0.533203125 -3.1494140625c-0.08203125 0.0263671875 -0.1640625 0.052734375 -0.2490234375 0.076171875 -0.205078125 -0.638671875 -0.45703125 -1.2626953125 -0.7470703125 -1.869140625 0.28125 -0.59765625 0.5185546875 -1.212890625 0.7177734375 -1.8427734375 0.15234375 0.0439453125 0.298828125 0.0908203125 0.439453125 0.1376953125 1.365234375 0.46875 2.3232421875 1.166015625 2.3232421875 1.69921875 0 0.57421875 -1.0224609375 1.3154296875 -2.484375 1.798828125zm-4.3857421875 -0.439453125c0.7412109375 0 1.341796875 -0.6005859375 1.341796875 -1.341796875s-0.6005859375 -1.341796875 -1.341796875 -1.341796875c-0.7412109375 0 -1.341796875 0.6005859375 -1.341796875 1.341796875s0.6005859375 1.341796875 1.341796875 1.341796875z" fill="#000000" stroke-width="1"></path></svg>