<svg width="22" height="22" viewBox="0 0 22 22" fill="none" xmlns="http://www.w3.org/2000/svg">
<path d="M11.0673 21.2108L11.0675 21.2105L20.9237 3.58607C20.9237 3.58601 20.9237 3.58596 20.9238 3.5859C20.9267 3.58055 20.9285 3.57326 20.9281 3.56603C20.9277 3.55931 20.9254 3.55284 20.9215 3.54737L21.328 3.25623L20.9215 3.54736C20.9176 3.54189 20.9122 3.53765 20.906 3.53513C20.8997 3.5326 20.8929 3.5319 20.8863 3.53311L20.8861 3.53315L11.226 5.29403C11.2259 5.29405 11.2258 5.29407 11.2256 5.29409L11.2253 5.29415L11.1356 4.80226C11.0729 4.81378 11.0086 4.81378 10.9459 4.80226L11.0673 21.2108ZM11.0673 21.2108C11.0643 21.2163 11.0598 21.2208 11.0544 21.224L11.3083 21.6547L11.0544 21.224C11.049 21.2272 11.0428 21.2289 11.0365 21.229C11.0302 21.229 11.024 21.2273 11.0186 21.2242C11.0131 21.221 11.0086 21.2165 11.0055 21.211L11.0052 21.2106L0.953744 3.58333L0.953529 3.58296C0.950179 3.57709 0.948571 3.5704 0.948893 3.56365C0.949215 3.55691 0.951455 3.55039 0.955349 3.54488C0.959243 3.53936 0.964629 3.53507 0.970877 3.5325C0.977125 3.52994 0.983974 3.52921 0.99062 3.5304L0.990903 3.53045L10.8555 5.29403C10.856 5.29411 10.8565 5.2942 10.857 5.29429L11.0673 21.2108Z" fill="white" stroke="#1B1B1B"/>
<mask id="path-2-inside-1_83_61" fill="white">
<path d="M15.6454 0.725254L8.35235 2.154C8.29414 2.16576 8.24143 2.19638 8.20238 2.24113C8.16333 2.28587 8.14012 2.34224 8.13635 2.4015L7.68785 9.9795C7.68538 10.0211 7.69263 10.0627 7.70904 10.1009C7.72545 10.1392 7.75057 10.1731 7.78239 10.2C7.81421 10.2269 7.85186 10.2459 7.89234 10.2557C7.93283 10.2655 7.97503 10.2657 8.0156 10.2563L10.0459 9.7875C10.0896 9.7774 10.1352 9.77845 10.1784 9.79057C10.2216 9.80268 10.2611 9.82547 10.2932 9.85684C10.3253 9.88821 10.349 9.92714 10.3622 9.97007C10.3753 10.013 10.3774 10.0585 10.3684 10.1025L9.76535 13.0568C9.75605 13.1022 9.75873 13.1494 9.77313 13.1935C9.78753 13.2376 9.81315 13.2772 9.84749 13.3085C9.88183 13.3397 9.9237 13.3615 9.969 13.3717C10.0143 13.3818 10.0615 13.3801 10.1059 13.3665L11.3599 12.9855C11.4043 12.9719 11.4516 12.9701 11.4969 12.9803C11.5423 12.9905 11.5842 13.0124 11.6186 13.0437C11.653 13.075 11.6786 13.1148 11.6929 13.159C11.7073 13.2033 11.7098 13.2505 11.7004 13.296L10.7411 17.9363C10.6811 18.2265 11.0674 18.3848 11.2286 18.1365L11.3359 17.97L17.2796 6.10875C17.3019 6.06406 17.3113 6.01402 17.3066 5.96428C17.302 5.91455 17.2835 5.8671 17.2533 5.82731C17.2231 5.78752 17.1824 5.75696 17.1358 5.73911C17.0891 5.72125 17.0384 5.7168 16.9894 5.72625L14.8991 6.129C14.8541 6.13762 14.8077 6.13454 14.7642 6.12007C14.7207 6.1056 14.6817 6.08022 14.6509 6.04635C14.62 6.01249 14.5984 5.97128 14.588 5.92666C14.5776 5.88204 14.5789 5.8355 14.5916 5.7915L15.9551 1.062C15.968 1.01786 15.9692 0.971154 15.9588 0.92638C15.9483 0.881606 15.9265 0.840274 15.8955 0.806365C15.8645 0.772456 15.8252 0.747113 15.7815 0.732775C15.7378 0.718437 15.6912 0.715589 15.6461 0.724504"/>
</mask>
<path d="M15.6454 0.725254L8.35235 2.154C8.29414 2.16576 8.24143 2.19638 8.20238 2.24113C8.16333 2.28587 8.14012 2.34224 8.13635 2.4015L7.68785 9.9795C7.68538 10.0211 7.69263 10.0627 7.70904 10.1009C7.72545 10.1392 7.75057 10.1731 7.78239 10.2C7.81421 10.2269 7.85186 10.2459 7.89234 10.2557C7.93283 10.2655 7.97503 10.2657 8.0156 10.2563L10.0459 9.7875C10.0896 9.7774 10.1352 9.77845 10.1784 9.79057C10.2216 9.80268 10.2611 9.82547 10.2932 9.85684C10.3253 9.88821 10.349 9.92714 10.3622 9.97007C10.3753 10.013 10.3774 10.0585 10.3684 10.1025L9.76535 13.0568C9.75605 13.1022 9.75873 13.1494 9.77313 13.1935C9.78753 13.2376 9.81315 13.2772 9.84749 13.3085C9.88183 13.3397 9.9237 13.3615 9.969 13.3717C10.0143 13.3818 10.0615 13.3801 10.1059 13.3665L11.3599 12.9855C11.4043 12.9719 11.4516 12.9701 11.4969 12.9803C11.5423 12.9905 11.5842 13.0124 11.6186 13.0437C11.653 13.075 11.6786 13.1148 11.6929 13.159C11.7073 13.2033 11.7098 13.2505 11.7004 13.296L10.7411 17.9363C10.6811 18.2265 11.0674 18.3848 11.2286 18.1365L11.3359 17.97L17.2796 6.10875C17.3019 6.06406 17.3113 6.01402 17.3066 5.96428C17.302 5.91455 17.2835 5.8671 17.2533 5.82731C17.2231 5.78752 17.1824 5.75696 17.1358 5.73911C17.0891 5.72125 17.0384 5.7168 16.9894 5.72625L14.8991 6.129C14.8541 6.13762 14.8077 6.13454 14.7642 6.12007C14.7207 6.1056 14.6817 6.08022 14.6509 6.04635C14.62 6.01249 14.5984 5.97128 14.588 5.92666C14.5776 5.88204 14.5789 5.8355 14.5916 5.7915L15.9551 1.062C15.968 1.01786 15.9692 0.971154 15.9588 0.92638C15.9483 0.881606 15.9265 0.840274 15.8955 0.806365C15.8645 0.772456 15.8252 0.747113 15.7815 0.732775C15.7378 0.718437 15.6912 0.715589 15.6461 0.724504" fill="white"/>
<path d="M8.35235 2.154L8.1601 1.17264L8.15437 1.1738L8.35235 2.154ZM8.13635 2.4015L7.13836 2.33796L7.1381 2.34242L8.13635 2.4015ZM7.68785 9.9795L8.68608 10.039L8.6861 10.0386L7.68785 9.9795ZM8.0156 10.2563L7.79064 9.28189L7.78974 9.28209L8.0156 10.2563ZM10.0459 9.7875L10.2708 10.7619L10.271 10.7618L10.0459 9.7875ZM10.3684 10.1025L9.38899 9.90036L9.38855 9.90252L10.3684 10.1025ZM9.76535 13.0568L10.7451 13.2572L10.7451 13.2567L9.76535 13.0568ZM10.1059 13.3665L9.81515 12.4097L9.81385 12.4101L10.1059 13.3665ZM11.3599 12.9855L11.6506 13.9423L11.6525 13.9417L11.3599 12.9855ZM11.7004 13.296L10.7213 13.0926L10.7211 13.0936L11.7004 13.296ZM10.7411 17.9363L9.76181 17.7338L9.76181 17.7338L10.7411 17.9363ZM11.2286 18.1365L12.0672 18.6812L12.0693 18.678L11.2286 18.1365ZM11.3359 17.97L12.1765 18.5115L12.2057 18.4662L12.2299 18.418L11.3359 17.97ZM17.2796 6.10875L18.1736 6.55676L18.1743 6.55541L17.2796 6.10875ZM16.9894 5.72625L17.1786 6.70819L17.1787 6.70817L16.9894 5.72625ZM14.8991 6.129L15.0871 7.11118L15.0883 7.11094L14.8991 6.129ZM14.5916 5.7915L15.5521 6.06983L15.5525 6.06852L14.5916 5.7915ZM15.9551 1.062L14.9949 0.782518L14.9942 0.784989L15.9551 1.062ZM15.4531 -0.256092L8.1601 1.17266L8.5446 3.13535L15.8376 1.7066L15.4531 -0.256092ZM8.15437 1.1738C7.88057 1.2291 7.63263 1.37313 7.44896 1.58359L8.95581 2.89866C8.85023 3.01963 8.70772 3.10242 8.55033 3.13421L8.15437 1.1738ZM7.44896 1.58359C7.26528 1.79405 7.15612 2.0592 7.13837 2.33796L9.13433 2.46504C9.12413 2.62528 9.06138 2.77769 8.95581 2.89866L7.44896 1.58359ZM7.1381 2.34242L6.6896 9.92042L8.6861 10.0386L9.1346 2.46058L7.1381 2.34242ZM6.68962 9.92005C6.6779 10.1169 6.71225 10.3138 6.78996 10.495L8.62813 9.70688C8.67301 9.81156 8.69285 9.92526 8.68608 10.039L6.68962 9.92005ZM6.78996 10.495C6.86766 10.6762 6.98656 10.8368 7.13723 10.964L8.42755 9.43595C8.51457 9.50943 8.58325 9.6022 8.62813 9.70688L6.78996 10.495ZM7.13723 10.964C7.28789 11.0913 7.46615 11.1816 7.65784 11.2278L8.12684 9.28359C8.23756 9.3103 8.34052 9.36247 8.42755 9.43595L7.13723 10.964ZM7.65784 11.2278C7.84953 11.2741 8.04937 11.275 8.24146 11.2304L7.78974 9.28209C7.90069 9.25637 8.01612 9.25688 8.12684 9.28359L7.65784 11.2278ZM8.24057 11.2306L10.2708 10.7619L9.82089 8.81314L7.79064 9.28189L8.24057 11.2306ZM10.271 10.7618C10.1514 10.7895 10.0267 10.7866 9.9085 10.7535L10.4483 8.82768C10.2436 8.77031 10.0278 8.76532 9.82073 8.81317L10.271 10.7618ZM9.9085 10.7535C9.79029 10.7203 9.6823 10.658 9.59448 10.5722L10.992 9.14146C10.8399 8.99294 10.6529 8.88504 10.4483 8.82768L9.9085 10.7535ZM9.59448 10.5722C9.50665 10.4864 9.4418 10.3799 9.4059 10.2625L11.3184 9.6776C11.2563 9.47434 11.144 9.28998 10.992 9.14146L9.59448 10.5722ZM9.4059 10.2625C9.36999 10.1451 9.36418 10.0206 9.38899 9.90036L11.3477 10.3046C11.3907 10.0965 11.3806 9.88086 11.3184 9.6776L9.4059 10.2625ZM9.38855 9.90252L8.78555 12.8568L10.7451 13.2567L11.3481 10.3025L9.38855 9.90252ZM8.78565 12.8563C8.74159 13.0717 8.75428 13.2947 8.82246 13.5037L10.7238 12.8833C10.7632 13.004 10.7705 13.1328 10.7451 13.2572L8.78565 12.8563ZM8.82246 13.5037C8.89064 13.7126 9.01198 13.9003 9.17458 14.0482L10.5204 12.5688C10.6143 12.6542 10.6844 12.7626 10.7238 12.8833L8.82246 13.5037ZM9.17458 14.0482C9.33717 14.1961 9.53543 14.2992 9.74988 14.3474L10.1881 12.396C10.312 12.4238 10.4265 12.4833 10.5204 12.5688L9.17458 14.0482ZM9.74988 14.3474C9.96434 14.3955 10.1876 14.3871 10.3979 14.3229L9.81385 12.4101C9.93527 12.373 10.0642 12.3681 10.1881 12.396L9.74988 14.3474ZM10.3966 14.3233L11.6506 13.9423L11.0691 12.0287L9.81515 12.4097L10.3966 14.3233ZM11.6525 13.9417C11.5309 13.9789 11.4016 13.9838 11.2776 13.9559L11.7163 12.0047C11.5015 11.9564 11.2778 11.9648 11.0672 12.0293L11.6525 13.9417ZM11.2776 13.9559C11.1535 13.928 11.0388 13.8683 10.9448 13.7826L12.2924 12.3048C12.1297 12.1564 11.9312 12.053 11.7163 12.0047L11.2776 13.9559ZM10.9448 13.7826C10.8508 13.6969 10.7808 13.5882 10.7416 13.4672L12.6442 12.8508C12.5764 12.6413 12.4551 12.4531 12.2924 12.3048L10.9448 13.7826ZM10.7416 13.4672C10.7024 13.3462 10.6954 13.2171 10.7213 13.0926L12.6794 13.4994C12.7242 13.2839 12.7121 13.0603 12.6442 12.8508L10.7416 13.4672ZM10.7211 13.0936L9.76181 17.7338L11.7204 18.1387L12.6796 13.4984L10.7211 13.0936ZM9.76181 17.7338C9.4771 19.1111 11.306 19.8531 12.0672 18.6812L10.39 17.5918C10.8287 16.9164 11.8851 17.3419 11.7204 18.1387L9.76181 17.7338ZM12.0693 18.678L12.1765 18.5115L10.4952 17.4285L10.3879 17.595L12.0693 18.678ZM12.2299 18.418L18.1736 6.55676L16.3856 5.66075L10.4418 17.522L12.2299 18.418ZM18.1743 6.55541C18.28 6.34379 18.3243 6.10685 18.3023 5.87137L16.311 6.0572C16.2983 5.92119 16.3239 5.78433 16.3849 5.6621L18.1743 6.55541ZM18.3023 5.87137C18.2803 5.63588 18.1929 5.41123 18.05 5.22282L16.4567 6.4318C16.3741 6.32297 16.3237 6.19321 16.311 6.0572L18.3023 5.87137ZM18.05 5.22282C17.907 5.03442 17.7142 4.88975 17.4933 4.8052L16.7783 6.67302C16.6507 6.62418 16.5393 6.54062 16.4567 6.4318L18.05 5.22282ZM17.4933 4.8052C17.2724 4.72064 17.0323 4.69956 16.8 4.74434L17.1787 6.70817C17.0445 6.73403 16.9058 6.72186 16.7783 6.67302L17.4933 4.8052ZM16.8002 4.74432L14.7099 5.14707L15.0883 7.11094L17.1786 6.70819L16.8002 4.74432ZM14.7111 5.14683C14.8342 5.12328 14.9612 5.13169 15.0801 5.17127L14.4483 7.06887C14.6541 7.13738 14.874 7.15195 15.0871 7.11118L14.7111 5.14683ZM15.0801 5.17127C15.1989 5.21084 15.3057 5.28025 15.39 5.37286L13.9117 6.71984C14.0577 6.88018 14.2425 7.00035 14.4483 7.06887L15.0801 5.17127ZM15.39 5.37286C15.4744 5.46548 15.5336 5.57819 15.562 5.70021L13.614 6.15311C13.6631 6.36437 13.7656 6.5595 13.9117 6.71984L15.39 5.37286ZM15.562 5.70021C15.5904 5.82222 15.587 5.94949 15.5521 6.06983L13.6311 5.51317C13.5707 5.72152 13.5648 5.94186 13.614 6.15311L15.562 5.70021ZM15.5525 6.06852L16.916 1.33902L14.9942 0.784989L13.6307 5.51449L15.5525 6.06852ZM16.9153 1.34149C16.9761 1.13249 16.9821 0.911339 16.9327 0.699335L14.9849 1.15343C14.9563 1.03097 14.9598 0.903233 14.995 0.782518L16.9153 1.34149ZM16.9327 0.699335C16.8832 0.487331 16.7801 0.291634 16.6331 0.131086L15.1579 1.48164C15.073 1.38891 15.0134 1.27588 14.9849 1.15343L16.9327 0.699335ZM16.6331 0.131086C16.4861 -0.0294715 16.3002 -0.149468 16.0934 -0.217352L15.4697 1.6829C15.3502 1.64369 15.2428 1.57438 15.1579 1.48164L16.6331 0.131086ZM16.0934 -0.217352C15.8866 -0.285239 15.6657 -0.298726 15.4522 -0.256515L15.84 1.70552C15.7167 1.7299 15.5891 1.72211 15.4697 1.6829L16.0934 -0.217352Z" fill="#1B1B1B" mask="url(#path-2-inside-1_83_61)"/>
</svg>
